<svg width="200" height="90" viewBox="0 0 200 90" fill="none" xmlns="http://www.w3.org/2000/svg">
<g clip-path="url(#clip0_10724_89449)">
<path d="M21 49.75C21 41.075 27.1 34.5 35.325 34.5C38.475 34.5 41.225 35.475 43.4 37.2C44.275 37.875 45.55 37.3 45.55 36.175V27.35C45.55 26.05 46.6 25 47.9 25H49.625C50.925 25 51.975 26.05 51.975 27.35V55.475C51.975 57.125 52.55 57.8 53.775 58.05C54.575 58.2 55.175 58.875 55.175 59.675V62.5C55.175 63.5 54.35 64.325 53.35 64.325C50.7 64.325 48.7 63.625 47.4 62.25C46.425 61.225 44.875 61.125 43.775 62.025C41.5 63.925 38.625 65 35.35 65C27.125 65 21.025 58.425 21.025 49.75H21ZM45.525 50.65C46.075 44.5 41.125 39.8 35.025 40.775C30.65 41.475 27.575 45.125 27.575 49.725C27.575 54.875 31.4 58.8 36.6 58.8C41.425 58.8 45.1 55.325 45.525 50.625V50.65Z" fill="#0F0E0C"/>
<path d="M76.8508 34.1499C68.0008 34.1499 61.3008 40.7249 61.3008 49.3999C61.3008 58.0749 67.9758 64.6499 77.0258 64.6499C82.1508 64.6499 86.6258 62.5499 89.5508 59.1499C90.9008 57.5999 89.8008 55.1749 87.7258 55.1749H86.0258C85.3508 55.1749 84.7258 55.4749 84.2758 55.9749C82.6758 57.7499 80.0758 58.8999 77.1258 58.8999C74.1758 58.8999 71.7508 57.7499 70.1008 55.8249C68.7758 54.2749 69.8758 51.8749 71.9258 51.8749H90.0258C91.3508 51.8749 92.4258 50.8249 92.4258 49.4999C92.4258 40.7249 85.7508 34.1499 76.8258 34.1499H76.8508ZM81.6258 46.6249H72.1758C70.0758 46.6249 68.9758 44.0749 70.4258 42.5749C72.0258 40.8999 74.2758 39.9499 76.8258 39.9499C79.3758 39.9499 81.7258 40.9249 83.3508 42.5749C84.8258 44.0749 83.7258 46.6499 81.6258 46.6499V46.6249Z" fill="#0F0E0C"/>
<path d="M118.476 34.7H120.201C121.276 34.7 122.226 35.35 122.626 36.35L129.026 52.3C129.626 53.775 131.726 53.775 132.301 52.3L138.651 36.35C139.051 35.35 140.026 34.7 141.101 34.7H142.651C144.526 34.7 145.801 36.625 145.076 38.35L134.701 62.8749C134.301 63.8499 133.351 64.475 132.276 64.475H128.926C127.876 64.475 126.926 63.8499 126.501 62.8749L116.076 38.35C115.351 36.625 116.601 34.7 118.501 34.7H118.476Z" fill="#0F0E0C"/>
<path d="M148.727 49.425C148.727 40.75 155.402 34.175 164.277 34.175C173.152 34.175 179.877 40.75 179.877 49.5C179.877 50.825 178.802 51.875 177.477 51.875H159.377C157.327 51.875 156.227 54.275 157.552 55.825C159.202 57.75 161.652 58.9 164.577 58.9C167.502 58.9 170.127 57.75 171.727 55.975C172.177 55.475 172.802 55.175 173.477 55.175H175.177C177.227 55.175 178.327 57.6 177.002 59.15C174.077 62.55 169.602 64.65 164.477 64.65C155.452 64.65 148.752 58.075 148.752 49.4L148.727 49.425ZM159.577 46.625H169.027C171.152 46.625 172.252 44.075 170.752 42.55C169.127 40.9 166.852 39.925 164.227 39.925C161.602 39.925 159.427 40.9 157.827 42.55C156.352 44.075 157.452 46.6 159.577 46.6V46.625Z" fill="#0F0E0C"/>
<path d="M107.751 53.075V36.925C107.751 33.125 106.676 30.125 104.576 28.025C103.001 26.45 100.876 25.45 98.2508 25.025C96.7008 24.775 95.3008 25.975 95.3008 27.525V29.675C95.3008 30.9 96.1758 31.975 97.4008 32.175C99.5008 32.525 100.526 33.7 100.526 36.925V53.075C100.526 56.875 101.601 59.875 103.701 61.975C105.276 63.55 107.401 64.55 110.026 64.975C111.576 65.225 112.976 64.025 112.976 62.475V60.325C112.976 59.1 112.101 58.025 110.876 57.825C108.776 57.475 107.751 56.3 107.751 53.075Z" fill="#0F0E0C"/>
</g>
<defs>
<clipPath id="clip0_10724_89449">
<rect width="158.875" height="40" fill="white" transform="translate(21 25)"/>
</clipPath>
</defs>
</svg>
